<svg width="884" height="714" viewBox="0 0 884 714" fill="none" xmlns="http://www.w3.org/2000/svg">
<g clip-path="url(#clip0_113_2)">
<path d="M581.625 399.613C562.978 410.796 529.755 424.809 495.805 410.408L473.86 401.099L517.838 351.801C482.744 313.106 463.328 262.722 463.382 210.484C463.435 158.246 482.954 107.902 518.127 69.2793C553.3 30.6567 601.603 6.52746 653.609 1.6013C705.615 -3.32486 757.59 11.3057 799.389 42.6371C841.189 73.9686 869.812 119.752 879.673 171.051C889.534 222.351 879.925 275.484 852.72 320.079C825.516 364.675 782.669 397.532 732.543 412.238C682.417 426.944 628.61 422.443 581.625 399.613V399.613ZM497.363 210.366C497.266 234.447 502.153 258.287 511.716 280.388C521.28 302.488 535.314 322.371 552.934 338.784L565.065 350.184L537.391 381.205C551.806 378.28 564.361 370.482 570.727 365.953L579.462 359.738L588.857 364.9C614.826 379.118 643.956 386.569 673.563 386.566C770.72 386.566 849.763 307.524 849.763 210.366C849.763 113.209 770.72 34.1662 673.563 34.1662C576.406 34.1662 497.363 113.209 497.363 210.366V210.366Z" fill="#3F3D56"/>
<path d="M480.28 210.366C480.28 103.619 566.816 17.0831 673.563 17.0831C780.31 17.0831 866.846 103.619 866.846 210.366C866.846 317.114 780.31 403.65 673.563 403.65C641.075 403.697 609.104 395.517 580.631 379.873C567.27 389.379 534.676 408.341 502.476 394.682L541.236 351.234C521.968 333.181 506.616 311.362 496.13 287.13C485.644 262.898 480.249 236.77 480.28 210.366V210.366Z" fill="#FC580A"/>
<path opacity="0.1" d="M833.919 210.785C833.919 109.796 756.463 26.9116 657.719 18.262C663.349 17.7688 669.044 17.502 674.802 17.502C781.55 17.502 868.086 104.038 868.086 210.785C868.086 317.533 781.55 404.068 674.802 404.068C669.053 404.068 663.368 403.798 657.746 403.306C756.477 394.644 833.919 311.765 833.919 210.785Z" fill="black"/>
<path d="M228.163 668.125C179.867 668.148 133.031 651.57 95.5044 621.169C57.9775 590.769 32.0398 548.394 22.0383 501.146C12.0369 453.897 18.5794 404.647 40.5694 361.648C62.5595 318.649 98.6607 284.515 142.823 264.967C186.985 245.418 236.525 241.643 283.139 254.274C329.754 266.905 370.61 295.174 398.862 334.344C427.114 373.514 441.044 421.204 438.318 469.422C435.592 517.641 416.375 563.457 383.888 599.193L427.866 648.492L405.92 657.801C371.97 672.201 338.748 658.189 320.101 647.006C291.443 660.898 260.01 668.119 228.163 668.125V668.125ZM228.163 281.558C131.006 281.558 51.9625 360.602 51.9625 457.758C51.9625 554.916 131.006 633.959 228.163 633.959C257.769 633.962 286.9 626.51 312.868 612.292L322.263 607.13L330.998 613.345C337.364 617.875 349.919 625.673 364.334 628.597L336.66 597.576L348.791 586.176C366.412 569.763 380.445 549.88 390.009 527.78C399.573 505.68 404.46 481.839 404.363 457.758C404.363 360.602 325.319 281.558 228.163 281.558V281.558Z" fill="#3F3D56"/>
<path d="M421.566 457.283C421.566 350.536 335.031 264 228.283 264C121.536 264 35 350.536 35 457.283C35 564.031 121.536 650.566 228.283 650.566C260.771 650.614 292.742 642.434 321.215 626.79C334.576 636.296 367.17 655.257 399.37 641.599L360.61 598.151C379.878 580.098 395.231 558.279 405.716 534.047C416.202 509.815 421.597 483.687 421.566 457.283Z" fill="#FC580A"/>
<path opacity="0.1" d="M69.0454 456.782C69.0454 355.793 146.502 272.908 245.245 264.259C239.615 263.766 233.92 263.499 228.162 263.499C121.415 263.499 34.8792 350.035 34.8792 456.782C34.8792 563.529 121.415 650.065 228.162 650.065C233.912 650.065 239.597 649.795 245.218 649.303C146.488 640.641 69.0454 557.762 69.0454 456.782Z" fill="black"/>
<path d="M158.271 570.52L129.621 629.571L69.8551 573.714L92.5712 518.061L158.271 570.52Z" fill="#3F3D56"/>
<path d="M154.875 571.043L128.65 623.263L74.1474 572.556L93.6551 521.868L154.875 571.043Z" fill="white"/>
<path d="M122.305 620.764L120.252 623.564L74.5232 581.438L77.135 579.049L122.305 620.764Z" fill="#3F3D56"/>
<path d="M134.574 581.126L100.744 554.471L106.759 539.219L141.802 566.567L134.574 581.126Z" fill="#FC580A"/>
<path d="M138.197 594.971L86.7952 554.713L87.8769 552.063L139.152 592.494L138.197 594.971Z" fill="#E6E6E6"/>
<path d="M135.213 601.391L83.8114 561.133L84.893 558.483L136.168 598.915L135.213 601.391Z" fill="#E6E6E6"/>
<path d="M132.489 606.281L81.0875 566.023L82.1691 563.373L133.444 603.804L132.489 606.281Z" fill="#E6E6E6"/>
<path d="M265.281 272.498L266.833 273.683C269.161 270.634 271.593 267.59 274.06 264.636L272.562 263.384C270.076 266.36 267.626 269.427 265.281 272.498Z" fill="white"/>
<path d="M280.237 254.6L281.678 255.917C284.268 253.08 286.957 250.263 289.67 247.543L288.288 246.165C285.555 248.905 282.846 251.743 280.237 254.6Z" fill="white"/>
<path d="M296.7 238.092L298.021 239.53C300.853 236.929 303.778 234.36 306.713 231.894L305.458 230.399C302.501 232.883 299.554 235.472 296.7 238.092Z" fill="white"/>
<path d="M251.956 291.651L253.606 292.694C255.658 289.448 257.813 286.2 260.01 283.042L258.408 281.926C256.193 285.109 254.023 288.381 251.956 291.651Z" fill="white"/>
<path d="M314.543 223.1L315.732 224.648C318.783 222.306 321.921 220.004 325.06 217.808L323.94 216.208C320.778 218.421 317.616 220.74 314.543 223.1Z" fill="white"/>
<path d="M240.371 311.916L242.107 312.808C243.865 309.388 245.725 305.96 247.634 302.622L245.939 301.653C244.016 305.016 242.142 308.469 240.371 311.916Z" fill="white"/>
<path d="M221.539 366.87L219.649 366.383C218.684 370.129 217.791 373.949 216.994 377.738L218.904 378.14C219.695 374.38 220.582 370.588 221.539 366.87Z" fill="white"/>
<path d="M333.629 209.74L334.677 211.387C337.913 209.328 341.24 207.314 344.566 205.399L343.592 203.707C340.241 205.636 336.889 207.666 333.629 209.74Z" fill="white"/>
<path d="M230.625 333.139L232.434 333.874C233.881 330.311 235.43 326.73 237.036 323.232L235.262 322.417C233.644 325.942 232.084 329.549 230.625 333.139Z" fill="white"/>
<path d="M222.805 355.159L224.673 355.729C225.799 352.045 227.022 348.339 228.31 344.713L226.47 344.06C225.173 347.712 223.94 351.447 222.805 355.159Z" fill="white"/>
<path d="M465.697 170.827C469.524 170.694 473.421 170.641 477.277 170.677L477.294 168.725C473.412 168.689 469.484 168.742 465.63 168.875L465.697 170.827Z" fill="white"/>
<path d="M353.809 198.122L354.707 199.855C358.117 198.089 361.607 196.377 365.081 194.768L364.261 192.996C360.76 194.618 357.244 196.343 353.809 198.122Z" fill="white"/>
<path d="M514 172.933C517.808 173.472 521.652 174.103 525.424 174.809L525.783 172.89C521.983 172.179 518.111 171.543 514.273 171L514 172.933Z" fill="white"/>
<path d="M535.189 176.751C538.966 177.441 542.782 178.227 546.529 179.086L546.965 177.183C543.19 176.317 539.346 175.526 535.54 174.83L535.189 176.751Z" fill="white"/>
<path d="M556.024 181.901C559.755 182.805 563.52 183.807 567.212 184.878L567.756 183.003C564.037 181.924 560.244 180.915 556.484 180.004L556.024 181.901Z" fill="white"/>
<path d="M576.33 188.534C579.895 189.96 583.479 191.488 586.981 193.073L587.786 191.294C584.258 189.697 580.647 188.159 577.055 186.722L576.33 188.534Z" fill="white"/>
<path d="M594.305 196.848C597.845 198.335 601.401 199.923 604.876 201.568L605.712 199.804C602.211 198.146 598.628 196.546 595.062 195.048L594.305 196.848Z" fill="white"/>
<path d="M630.644 216.828C634.039 218.621 637.442 220.516 640.758 222.461L641.746 220.777C638.404 218.817 634.977 216.908 631.556 215.102L630.644 216.828Z" fill="white"/>
<path d="M613.638 205.829C617.036 207.616 620.442 209.506 623.761 211.446L624.746 209.761C621.402 207.806 617.971 205.902 614.548 204.101L613.638 205.829Z" fill="white"/>
<path d="M488.851 171.032C492.695 171.234 496.58 171.523 500.398 171.892L500.587 169.949C496.74 169.577 492.826 169.285 488.954 169.082L488.851 171.032Z" fill="white"/>
<path d="M442.388 170.702L442.626 172.64C446.431 172.172 450.305 171.781 454.14 171.48L453.988 169.533C450.123 169.837 446.22 170.23 442.388 170.702Z" fill="white"/>
<path d="M396.842 180.469L397.42 182.334C401.089 181.198 404.833 180.129 408.549 179.157L408.055 177.269C404.311 178.247 400.538 179.324 396.842 180.469Z" fill="white"/>
<path d="M374.925 188.341L375.667 190.147C379.216 188.691 382.842 187.297 386.444 186.003L385.784 184.166C382.155 185.469 378.502 186.874 374.925 188.341Z" fill="white"/>
<path d="M419.399 174.571L419.808 176.481C423.558 175.676 427.383 174.945 431.175 174.307L430.851 172.381C427.03 173.024 423.177 173.761 419.399 174.571Z" fill="white"/>
<path d="M663.426 236.627L654.823 219.163L649.943 226.461C649.08 225.924 648.223 225.378 647.359 224.853L646.345 226.522C647.189 227.034 648.02 227.564 648.857 228.085L644 235.348L663.426 236.627Z" fill="white"/>
<path fill-rule="evenodd" clip-rule="evenodd" d="M294.871 413.494C300.956 425.121 304 438.053 304 452.296C304 462.179 302.603 471.405 299.811 479.98C297.02 488.555 292.972 496.255 287.675 503.083L300.564 517.471L276.507 538.615L262.114 523.358C252.091 528.007 240.85 530.331 228.393 530.331C213.212 530.331 199.931 526.955 188.547 520.196C177.162 513.438 168.391 504.251 162.235 492.621C156.077 480.997 153 468.064 153 453.82C153 438.853 156.22 425.449 162.664 413.603C169.109 401.759 178.057 392.533 189.514 385.919C200.968 379.308 213.927 376 228.393 376C243.858 376 257.282 379.344 268.666 386.027C280.051 392.714 288.783 401.869 294.871 413.494ZM196.897 467.881C196.897 484.613 210.262 498.177 226.749 498.177C243.237 498.177 256.603 484.613 256.603 467.881C256.603 456.716 254.668 449.76 247.702 438.651C247.702 438.651 248.642 455.763 242.671 464.851C245.657 445.664 238.691 416.377 223.764 400.219C230.73 417.388 221.774 444.654 214.919 449.815C214.919 449.815 210.883 437.416 214.863 425.41C199.882 438.595 196.897 456.828 196.897 467.881Z" fill="white"/>
<path d="M863.732 218.029C855.738 218.505 848.818 211.517 848.276 202.421C847.734 193.324 853.774 185.564 861.768 185.087C869.762 184.611 876.682 191.599 877.224 200.696C877.766 209.792 871.725 217.553 863.732 218.029Z" fill="#2F2E41"/>
<path d="M814.643 252.922L821.333 244.598L836.013 248.809L835.758 267.781L806.101 267.985L814.349 253.442L814.643 252.922Z" fill="#FBBEBE"/>
<path d="M830.198 252.084C817.518 252.84 806.533 241.609 805.662 226.999C804.792 212.39 814.365 199.934 827.045 199.178C839.725 198.422 850.71 209.653 851.581 224.263C852.452 238.873 842.878 251.329 830.198 252.084Z" fill="#FBBEBE"/>
<path d="M689.189 294.548C689.189 294.548 660.999 356.024 653.978 365.419C650.648 370.035 647.069 374.43 643.26 378.58C643.26 378.58 647.579 391.236 653.207 390.439C656.418 390.035 659.529 388.996 662.387 387.372C662.387 387.372 664.486 380.073 668.702 376.676C672.919 373.279 706.59 332.475 705.012 320.169C703.435 307.863 689.189 294.548 689.189 294.548Z" fill="#2F2E41"/>
<path d="M796.047 368.226C796.047 368.226 767.788 396.89 725.701 374.047L722.026 371.27C722.026 371.27 728.846 386.319 729.642 390.462C730.565 395.266 747.622 422.711 750.21 423.92C752.798 425.129 753.426 426.35 753.426 426.35L743.594 440.57L739.46 437.446C739.46 437.446 722.616 413.148 717.854 408.803C713.092 404.458 688.879 358.168 688.879 358.168C688.879 358.168 679.638 340.734 699.956 338.17C720.274 335.607 730.045 341.497 730.045 341.497L766.645 346.01L796.047 368.226Z" fill="#2F2E41"/>
<path d="M642.539 376.615L623.544 383.609C623.544 383.609 601.038 385.005 613.07 392.129C625.103 399.252 658.974 408.599 661.062 403.057C663.15 397.515 663.089 388.025 661.269 388.125C659.449 388.226 646.937 388.411 642.539 376.615Z" fill="#2F2E41"/>
<path d="M736.864 433.61L735.081 451.742C735.081 451.742 728.027 470.013 737.441 463.913C746.854 457.814 765.677 435.653 762.451 431.435C759.226 427.217 752.399 422.84 751.82 424.312C751.241 425.783 746.896 435.666 736.864 433.61Z" fill="#2F2E41"/>
<path d="M761.048 352.48C761.048 352.48 783.16 378.749 795.191 371.33C807.223 363.912 853.466 283.538 846.808 269.59C840.149 255.641 838.384 258.799 838.384 258.799L812.294 263.157L819.018 248.776C819.018 248.776 815.313 246.001 812.201 250.392C809.09 254.783 796.219 266.053 792.398 281.115C788.578 296.178 774.732 296.263 774.732 296.263L761.048 352.48Z" fill="white"/>
<path d="M675.79 300.253L713.633 341.177L741.415 275.186L708.886 235.271L675.79 300.253Z" fill="#3F3D56"/>
<path d="M678.792 300.197L712.996 336.206L738.462 276.059L709.626 239.234L678.792 300.197Z" fill="white"/>
<path d="M714.962 340.096L713.331 341.839L714.587 344.258L764.925 358.155L765.276 356.189L762.873 353.661L714.962 340.096Z" fill="#B3B3B3"/>
<path d="M713.319 341.642L765.277 357.132L792.211 287.05L741.383 275.409L713.319 341.642Z" fill="#D0CDE1"/>
<path d="M716.756 332.08L719.097 333.838L740.869 282.832L738.232 281.608L716.756 332.08Z" fill="#3F3D56"/>
<path d="M721.892 334.21L743.841 340.378L765.262 288.711L743.647 284.29L721.892 334.21Z" fill="#3F3D56"/>
<path d="M779.862 293.318L775.377 292.025C775.377 292.025 750.676 290.017 750.893 299.674C751.109 309.332 779.34 303.163 779.34 303.163L782.755 296.472L779.862 293.318Z" fill="#FBBEBE"/>
<path d="M761.279 335.332L754.692 332.767C754.692 332.767 734.761 324.201 739.935 317.538C745.109 310.876 762.886 320.852 762.886 320.852L766.372 324.137L761.279 335.332Z" fill="#FBBEBE"/>
<path d="M766.217 320.468C766.217 320.468 756.935 332.872 759.373 335.511C761.81 338.149 801.245 372.414 809.786 360.189C818.327 347.965 859.836 286.67 842.026 282.687C824.215 278.705 820.289 290.732 820.289 290.732L799.969 339.039L766.217 320.468Z" fill="white"/>
<path d="M793.811 284.306L777.46 291.683L778.543 305.251L796.11 302.049L793.811 284.306Z" fill="white"/>
<path opacity="0.2" d="M781.576 327.118L799.994 338.033L818.08 300.892L800.318 331.658L781.576 327.118Z" fill="black"/>
<path d="M840.501 248.465C825.891 249.336 813.209 235.963 812.174 218.597C811.139 201.231 822.144 186.447 836.753 185.576C851.363 184.706 864.045 198.078 865.08 215.444C866.115 232.81 855.111 247.594 840.501 248.465Z" fill="#2F2E41"/>
<path d="M695.741 301.17L712.963 268.44L704.189 257.59L686.275 291.276L695.741 301.17Z" fill="#FC580A"/>
<path d="M697.993 315.061L723.745 264.447L722.212 262.527L696.6 313.248L697.993 315.061Z" fill="#E6E6E6"/>
<path d="M701.327 319.871L728.035 269.2L726.455 267.283L699.892 318.061L701.327 319.871Z" fill="#E6E6E6"/>
<path d="M705.456 322.63L731.209 272.017L729.675 270.096L704.064 320.818L705.456 322.63Z" fill="#E6E6E6"/>
<path d="M824.93 197.301L816.351 197.812C812.008 198.071 807.955 200.212 805.084 203.765C802.214 207.317 800.761 211.991 801.045 216.756V216.756L826.001 215.269L824.93 197.301Z" fill="#2F2E41"/>
</g>
<defs>
<clipPath id="clip0_113_2">
<rect width="883.929" height="713.746" fill="white"/>
</clipPath>
</defs>
</svg>
